<mxfile host="app.diagrams.net" modified="2022-05-25T00:46:09.375Z" agent="5.0 (Macintosh; Intel Mac OS X 10_15_7) AppleWebKit/605.1.15 (KHTML, like Gecko) Version/15.2 Safari/605.1.15" etag="R_R-QGgRl97qw2ZLLPGo" version="18.1.2" type="github">
  <diagram id="XMzop76xDojJvXacJEDY" name="Page-1">
    <mxGraphModel dx="926" dy="483" grid="1" gridSize="10" guides="1" tooltips="1" connect="1" arrows="1" fold="1" page="1" pageScale="1" pageWidth="850" pageHeight="1100" math="0" shadow="0">
      <root>
        <mxCell id="0" />
        <mxCell id="1" parent="0" />
        <mxCell id="btVkp6E1jNSbQvX6izLG-1" value="" style="rounded=0;whiteSpace=wrap;html=1;" vertex="1" parent="1">
          <mxGeometry x="110" y="200" width="80" height="50" as="geometry" />
        </mxCell>
        <mxCell id="btVkp6E1jNSbQvX6izLG-2" value="1" style="text;html=1;strokeColor=none;fillColor=none;align=center;verticalAlign=middle;whiteSpace=wrap;rounded=0;" vertex="1" parent="1">
          <mxGeometry x="120" y="210" width="60" height="30" as="geometry" />
        </mxCell>
      </root>
    </mxGraphModel>
  </diagram>
</mxfile>
